#!OML:ASF H:\LiuWeirdWalks\Patient Classification 1\Patient 1\Session 1\male.ASF
:FULLY-SPECIFIED
:DEGREES
742
root 1.2979 18.2285 38.4374 -2.27602 3.79652 1.69973
lowerback 3.98942 1.25012 -1.56307
upperback -0.241156 1.61482 0.896888
thorax -2.55344 0.832133 1.69867
lowerneck -20.9619 1.12206 3.61843
upperneck 27.3419 2.25135 -6.02743
head 12.7068 0.563084 -2.55372
rclavicle 2.7718e-014 -4.37326e-015
rhumerus -37.6528 -14.0724 -69.0349
rradius 33.7766
rwrist -7.9179
rhand -16.1238 -1.33222
rfingers 7.12502
rthumb 10.0807 -31.0708
lclavicle 2.7718e-014 -4.37326e-015
lhumerus -40.0616 3.61641 80.4658
lradius 30.4654
lwrist 4.21315
lhand -11.3689 -2.70146
lfingers 7.12502
lthumb 14.6651 26.7599
rfemur -10.3193 -1.84399 21.9031
rtibia 26.7252
rfoot -1.79632 -13.6734
rtoes -0.954766
lfemur -13.5046 4.57903 -16.9015
ltibia 58.0116
lfoot -5.90028 6.11861
ltoes -17.212
743
root 1.29803 18.2251 38.49 -2.11319 3.63796 1.7439
lowerback 3.84342 1.32679 -1.49598
upperback -0.2617 1.72024 0.82453
thorax -2.49275 0.882996 1.58303
lowerneck -20.995 1.07243 3.56201
upperneck 27.3924 2.16849 -5.92315
head 12.7266 0.534037 -2.51901
rclavicle -1.01504e-014 -3.97569e-015
rhumerus -37.4523 -13.9229 -69.2099
rradius 34.2038
rwrist -8.06437
rhand -16.097 -1.30182
rfingers 7.12502
rthumb 10.1066 -31.0391
lclavicle -1.01504e-014 -3.97569e-015
lhumerus -40.0828 3.36392 80.5699
lradius 30.5467
lwrist 4.19445
lhand -11.2883 -2.69837
lfingers 7.12502
lthumb 14.7428 26.7574
rfemur -10.4241 -1.78933 21.8785
rtibia 26.9444
rfoot -2.05224 -13.6345
rtoes -1.02835
lfemur -13.6983 4.70383 -17.0956
ltibia 56.8951
lfoot -6.60288 6.62056
ltoes -17.1621
744
root 1.29871 18.2206 38.542 -1.9738 3.48966 1.76706
lowerback 3.71897 1.39774 -1.40703
upperback -0.269604 1.81878 0.757909
thorax -2.42987 0.930131 1.46161
lowerneck -21.0677 1.01914 3.49818
upperneck 27.4541 2.07974 -5.81062
head 12.7588 0.502155 -2.48138
rclavicle -3.16378e-014 -1.59028e-015
rhumerus -37.2448 -13.7834 -69.3852
rradius 34.6209
rwrist -8.20818
rhand -16.0842 -1.25232
rfingers 7.12502
rthumb 10.1189 -30.989
lclavicle -3.16378e-014 -1.59028e-015
lhumerus -40.0747 3.12352 80.6668
lradius 30.6085
lwrist 4.13382
lhand -11.2226 -2.69449
lfingers 7.12502
lthumb 14.806 26.7566
rfemur -10.5101 -1.74809 21.8721
rtibia 27.1727
rfoot -2.32286 -13.5971
rtoes -1.08533
lfemur -13.8141 4.78064 -17.2738
ltibia 55.6614
lfoot -7.28104 7.0938
ltoes -17.0927
745
root 1.30076 18.2162 38.5925 -1.80153 3.3392 1.78767
lowerback 3.55827 1.46574 -1.31097
upperback -0.297647 1.91395 0.691577
thorax -2.36649 0.975712 1.33779
lowerneck -21.08 0.9702 3.46107
upperneck 27.4894 1.99547 -5.72204
head 12.7689 0.472837 -2.45581
rclavicle 1.66482e-015 -1.59028e-015
rhumerus -37.0709 -13.6355 -69.5488
rradius 35.0301
rwrist -8.33867
rhand -16.0768 -1.18608
rfingers 7.12502
rthumb 10.126 -30.9224
lclavicle 1.66482e-015 -1.59028e-015
lhumerus -40.0843 2.91488 80.7417
lradius 30.6556
lwrist 3.99462
lhand -11.1517 -2.72764
lfingers 7.12502
lthumb 14.8743 26.7184
rfemur -10.635 -1.71572 21.8638
rtibia 27.3968
rfoot -2.59333 -13.5469
rtoes -1.13058
lfemur -13.9184 4.80897 -17.4635
ltibia 54.3162
lfoot -7.91982 7.53993
ltoes -17.0133
746
root 1.30319 18.21 38.6422 -1.67876 3.20072 1.76007
lowerback 3.43457 1.52658 -1.16545
upperback -0.290857 2.00128 0.636868
thorax -2.28599 1.01659 1.1987
lowerneck -21.1703 0.928021 3.43499
upperneck 27.5461 1.91676 -5.63652
head 12.8044 0.445632 -2.43346
rclavicle -6.53505e-015 2.38542e-015
rhumerus -36.8558 -13.4973 -69.7314
rradius 35.4245
rwrist -8.51648
rhand -16.1035 -1.14767
rfingers 7.12502
rthumb 10.1003 -30.8853
lclavicle -6.53505e-015 2.38542e-015
lhumerus -40.0398 2.74815 80.7956
lradius 30.6796
lwrist 3.83286
lhand -11.1171 -2.80233
lfingers 7.12502
lthumb 14.9076 26.6412
rfemur -10.6931 -1.70519 21.9051
rtibia 27.5919
rfoot -2.85234 -13.4913
rtoes -1.18998
lfemur -13.9214 4.77416 -17.5964
ltibia 52.8669
lfoot -8.54201 7.96032
ltoes -17.0063
747
root 1.3057 18.2022 38.6916 -1.6318 3.08118 1.66366
lowerback 3.37259 1.57708 -0.957718
upperback -0.242069 2.07701 0.60688
thorax -2.19478 1.05097 1.05014
lowerneck -21.3347 0.894363 3.41489
upperneck 27.6112 1.84976 -5.56135
head 12.8596 0.421873 -2.41495
rclavicle 5.41378e-014 7.15625e-015
rhumerus -36.5963 -13.3833 -69.9104
rradius 35.7879
rwrist -8.65271
rhand -16.1052 -1.12966
rfingers 7.12502
rthumb 10.0987 -30.8673
lclavicle 5.41378e-014 7.15625e-015
lhumerus -39.946 2.63396 80.8323
lradius 30.6633
lwrist 3.59078
lhand -11.1648 -2.98873
lfingers 7.12502
lthumb 14.8618 26.4582
rfemur -10.6528 -1.71425 22.0183
rtibia 27.7571
rfoot -3.10952 -13.443
rtoes -1.2514
lfemur -13.7902 4.67071 -17.6453
ltibia 51.3207
lfoot -9.16705 8.36057
ltoes -17.0689
748
root 1.30852 18.1928 38.7406 -1.64046 2.97054 1.50431
lowerback 3.34758 1.61756 -0.696186
upperback -0.177192 2.14141 0.600777
thorax -2.10589 1.07945 0.896059
lowerneck -21.4832 0.869754 3.41441
upperneck 27.6699 1.79468 -5.50504
head 12.9102 0.403219 -2.40489
rclavicle 3.94215e-014 2.38542e-015
rhumerus -36.3463 -13.2744 -70.0758
rradius 36.1355
rwrist -8.72882
rhand -16.0787 -1.12511
rfingers 7.12502
rthumb 10.1242 -30.8615
lclavicle 3.94215e-014 2.38542e-015
lhumerus -39.8525 2.55904 80.8536
lradius 30.6224
lwrist 3.3504
lhand -11.2836 -3.25587
lfingers 7.12502
lthumb 14.7473 26.1995
rfemur -10.5366 -1.73752 22.1968
rtibia 27.8903
rfoot -3.35976 -13.3933
rtoes -1.30514
lfemur -13.5457 4.51004 -17.621
ltibia 49.688
lfoot -9.78399 8.77232
ltoes -17.1921
